<svg width="174" height="32" viewBox="0 0 174 32" fill="none" xmlns="http://www.w3.org/2000/svg">
<g clip-path="url(#clip0_6_2)">
<path d="M23.8789 1.69263L39.8169 31.9999H51.4604L23.8789 1.69263Z" fill="url(#paint0_linear_6_2)"/>
<path d="M23.8452 1.60864H12.1914L39.8057 32.0001H39.816L23.878 1.66902L23.8452 1.60864Z" fill="url(#paint1_linear_6_2)"/>
<path d="M29.3414 20.3315L17.2773 7.021L28.7779 7.04474L40.8359 20.3315H29.3414Z" fill="url(#paint2_linear_6_2)"/>
<path d="M66.8386 0.034668C28.7536 3.28614 4.23973 21.4599 4.23973 21.4599L0 31.9701C25.837 4.53029 62.8068 0.41049 66.8386 0.034668Z" fill="url(#paint3_linear_6_2)"/>
<path d="M66.8398 0.0312055L67.2009 0C67.2009 0 67.0771 0.00881894 66.8398 0.0312055Z" fill="url(#paint4_linear_6_2)"/>
<path d="M67.1997 0L66.8386 0.0312055C62.8068 0.407028 25.837 4.52683 0 31.9666H4.39564L22.4234 23.3308C40.7349 5.98467 67.1997 0 67.1997 0Z" fill="url(#paint5_linear_6_2)"/>
<path d="M66.8386 0.0312055C62.8068 0.407028 25.837 4.52683 0 31.9666H14.8172C17.0882 28.8169 19.6634 25.9446 22.4234 23.3302C40.7349 5.98467 67.1997 0 67.1997 0L66.8386 0.0312055Z" fill="url(#paint6_linear_6_2)"/>
<path d="M72.8348 0.988495H70.4254L74.7933 7.88024L70.3984 14.772H72.8213L76.1326 9.45511H76.2403L79.5515 14.772H81.9744L77.6536 7.88024L81.9475 0.988495H79.5381L76.2403 6.3794H76.1326L72.8348 0.988495Z" fill="white"/>
<path d="M87.6665 14.9806C90.1096 14.9806 91.6912 13.5134 91.9133 11.5011H89.9548C89.699 12.6183 88.8308 13.2779 87.68 13.2779C85.9772 13.2779 84.8802 11.8578 84.8802 9.60319C84.8802 7.38894 85.9974 5.99579 87.68 5.99579C88.9587 5.99579 89.7394 6.80341 89.9548 7.77257H91.9133C91.6979 5.6862 89.9952 4.29977 87.6463 4.29977C84.7321 4.29977 82.8477 6.49382 82.8477 9.6503C82.8477 12.7664 84.6648 14.9806 87.6665 14.9806Z" fill="white"/>
<path d="M96.0776 8.63402C96.0776 6.98512 97.1208 6.04289 98.5543 6.04289C99.9407 6.04289 100.769 6.92455 100.769 8.43885V14.772H102.781V8.19656C102.781 5.61889 101.368 4.29976 99.2408 4.29976C97.6323 4.29976 96.6631 4.99971 96.1785 6.11692H96.0507V0.988495H94.0653V14.772H96.0776V8.63402Z" fill="white"/>
<path d="M108.475 15.0008C110.184 15.0008 111.147 14.1326 111.53 13.3586H111.611V14.772H113.576V7.90717C113.576 4.89876 111.207 4.29977 109.565 4.29977C107.694 4.29977 105.971 5.05356 105.298 6.93802L107.189 7.36875C107.485 6.63516 108.239 5.92849 109.592 5.92849C110.891 5.92849 111.557 6.60824 111.557 7.7793V7.82641C111.557 8.56 110.803 8.54654 108.946 8.76191C106.987 8.99074 104.982 9.50223 104.982 11.8511C104.982 13.8836 106.509 15.0008 108.475 15.0008ZM108.912 13.3856C107.775 13.3856 106.954 12.8741 106.954 11.878C106.954 10.8012 107.909 10.4175 109.074 10.2627C109.726 10.1752 111.274 10.0003 111.564 9.71087V11.0434C111.564 12.2683 110.588 13.3856 108.912 13.3856Z" fill="white"/>
<path d="M118.269 8.63403C118.269 6.98513 119.278 6.0429 120.678 6.0429C122.044 6.0429 122.872 6.93802 122.872 8.43886V14.772H124.885V8.19657C124.885 5.63909 123.478 4.29977 121.365 4.29977C119.81 4.29977 118.794 5.01991 118.316 6.11693H118.188V4.43438H116.256V14.772H118.269V8.63403Z" fill="white"/>
<path d="M131.918 18.864C134.549 18.864 136.582 17.6592 136.582 15.0008V4.43438H134.61V6.1102H134.462C134.105 5.47083 133.392 4.29977 131.467 4.29977C128.97 4.29977 127.133 6.27173 127.133 9.5628C127.133 12.8606 129.01 14.6172 131.453 14.6172C133.351 14.6172 134.085 13.5471 134.448 12.8875H134.576V14.92C134.576 16.542 133.466 17.242 131.938 17.242C130.262 17.242 129.609 16.4007 129.253 15.8084L127.523 16.5218C128.068 17.7871 129.448 18.864 131.918 18.864ZM131.898 12.9481C130.101 12.9481 129.165 11.5684 129.165 9.53588C129.165 7.55047 130.08 6.00925 131.898 6.00925C133.654 6.00925 134.596 7.44279 134.596 9.53588C134.596 11.6694 133.634 12.9481 131.898 12.9481Z" fill="white"/>
<path d="M143.736 14.9806C145.991 14.9806 147.586 13.8701 148.043 12.1876L146.139 11.8443C145.775 12.8202 144.9 13.3183 143.756 13.3183C142.033 13.3183 140.876 12.201 140.822 10.2089H148.171V9.4955C148.171 5.76023 145.937 4.29977 143.595 4.29977C140.714 4.29977 138.816 6.49382 138.816 9.67049C138.816 12.8808 140.687 14.9806 143.736 14.9806ZM140.829 8.70134C140.909 7.23415 141.973 5.96214 143.608 5.96214C145.169 5.96214 146.192 7.11974 146.199 8.70134H140.829Z" fill="white"/>
<path d="M162.539 7.88024C162.539 3.47195 159.9 0.800049 156.333 0.800049C152.753 0.800049 150.121 3.47195 150.121 7.88024C150.121 12.2818 152.753 14.9604 156.333 14.9604C159.9 14.9604 162.539 12.2885 162.539 7.88024ZM160.479 7.88024C160.479 11.2386 158.702 13.0625 156.333 13.0625C153.957 13.0625 152.187 11.2386 152.187 7.88024C152.187 4.52186 153.957 2.69797 156.333 2.69797C158.702 2.69797 160.479 4.52186 160.479 7.88024Z" fill="white"/>
<path d="M166.982 8.63403C166.982 6.98513 167.992 6.0429 169.392 6.0429C170.758 6.0429 171.586 6.93802 171.586 8.43886V14.772H173.598V8.19657C173.598 5.63909 172.191 4.29977 170.078 4.29977C168.523 4.29977 167.507 5.01991 167.029 6.11693H166.901V4.43438H164.97V14.772H166.982V8.63403Z" fill="white"/>
<path d="M76.5567 24.248C76.2887 22.7674 75.1042 21.8931 73.6518 21.8931C71.8045 21.8931 70.4648 23.3173 70.4648 25.6017C70.4648 27.8862 71.8045 29.3104 73.6518 29.3104C75.1042 29.3104 76.2887 28.4361 76.5567 26.9555H75.6824C75.4708 27.9567 74.6107 28.4925 73.6518 28.4925C72.3403 28.4925 71.3109 27.4772 71.3109 25.6017C71.3109 23.7263 72.3403 22.7109 73.6518 22.7109C74.6107 22.7109 75.4708 23.2468 75.6824 24.248H76.5567Z" fill="#08A66E"/>
<path d="M77.8566 29.2117H78.6886V25.7851C78.6886 25.0518 79.2668 24.5159 80.0564 24.5159C80.2785 24.5159 80.5077 24.5582 80.5641 24.5723V23.7263C80.4689 23.7192 80.2503 23.7121 80.127 23.7121C79.4783 23.7121 78.9142 24.0788 78.7168 24.6146H78.6604V23.7968H77.8566V29.2117Z" fill="#08A66E"/>
<path d="M82.251 31.2423C83.0019 31.2423 83.5307 30.8439 83.8444 30.0014L86.15 23.8109L85.2405 23.7968L83.7457 28.1118H83.6893L82.1946 23.7968H81.2921L83.2945 29.2399L83.1394 29.6629C82.8362 30.4879 82.4625 30.5654 81.8561 30.4103L81.6446 31.1436C81.7292 31.1859 81.969 31.2423 82.251 31.2423Z" fill="#08A66E"/>
<path d="M87.2508 31.2423H88.0828V28.3797H88.1533C88.3366 28.6758 88.6892 29.3245 89.7327 29.3245C91.0864 29.3245 92.0312 28.2387 92.0312 26.5183C92.0312 24.8121 91.0864 23.7263 89.7186 23.7263C88.661 23.7263 88.3366 24.3749 88.1533 24.6569H88.0546V23.7968H87.2508V31.2423ZM88.0687 26.5042C88.0687 25.2915 88.6045 24.4736 89.6199 24.4736C90.6775 24.4736 91.1992 25.362 91.1992 26.5042C91.1992 27.6605 90.6634 28.5771 89.6199 28.5771C88.6186 28.5771 88.0687 27.7311 88.0687 26.5042Z" fill="#08A66E"/>
<path d="M95.6553 23.7968H94.4989V22.4994H93.667V23.7968H92.8491V24.5018H93.667V27.8862C93.667 28.831 94.4284 29.2822 95.1335 29.2822C95.4437 29.2822 95.6412 29.2258 95.754 29.1835L95.5847 28.4361C95.5142 28.4502 95.4014 28.4784 95.2181 28.4784C94.8515 28.4784 94.4989 28.3656 94.4989 27.6605V24.5018H95.6553V23.7968Z" fill="#08A66E"/>
<path d="M99.0484 29.3245C100.515 29.3245 101.502 28.2105 101.502 26.5324C101.502 24.8403 100.515 23.7263 99.0484 23.7263C97.5819 23.7263 96.5948 24.8403 96.5948 26.5324C96.5948 28.2105 97.5819 29.3245 99.0484 29.3245ZM99.0484 28.5771C97.9344 28.5771 97.4267 27.6182 97.4267 26.5324C97.4267 25.4466 97.9344 24.4736 99.0484 24.4736C100.162 24.4736 100.67 25.4466 100.67 26.5324C100.67 27.6182 100.162 28.5771 99.0484 28.5771Z" fill="#08A66E"/>
<path d="M105.677 29.2117H110.091V28.4361H106.551V25.9825H109.809V25.2069H106.551V22.7674H110.034V21.9918H105.677V29.2117Z" fill="#08A66E"/>
<path d="M112.118 23.7968H111.159L112.879 26.5042L111.159 29.2117H112.118L113.415 27.1106L114.712 29.2117H115.671L113.923 26.5042L115.671 23.7968H114.712L113.415 26.0107L112.118 23.7968Z" fill="#08A66E"/>
<path d="M118.835 29.3245C120.034 29.3245 120.824 28.5912 120.965 27.6323H120.133C119.978 28.2246 119.484 28.5771 118.835 28.5771C117.848 28.5771 117.214 27.7593 117.214 26.5042C117.214 25.2774 117.862 24.4736 118.835 24.4736C119.569 24.4736 120.006 24.9249 120.133 25.4184H120.965C120.824 24.4031 119.963 23.7263 118.821 23.7263C117.355 23.7263 116.382 24.8826 116.382 26.5324C116.382 28.1541 117.312 29.3245 118.835 29.3245Z" fill="#08A66E"/>
<path d="M123.013 25.9543C123.013 25.0095 123.616 24.4736 124.437 24.4736C125.22 24.4736 125.692 24.9672 125.692 25.8274V29.2117H126.524V25.771C126.524 24.3784 125.784 23.7263 124.677 23.7263C123.824 23.7263 123.337 24.0823 123.083 24.6428H123.013V21.9918H122.181V29.2117H123.013V25.9543Z" fill="#08A66E"/>
<path d="M129.64 29.3386C130.584 29.3386 131.078 28.831 131.247 28.4784H131.29V29.2117H132.122V25.644C132.122 23.9237 130.81 23.7263 130.119 23.7263C129.301 23.7263 128.371 24.0083 127.947 24.9954L128.737 25.2774C128.92 24.8826 129.354 24.4595 130.147 24.4595C130.912 24.4595 131.29 24.8649 131.29 25.5594V25.5876C131.29 25.9895 130.881 25.9543 129.893 26.0812C128.889 26.2116 127.792 26.4337 127.792 27.6746C127.792 28.7323 128.61 29.3386 129.64 29.3386ZM129.767 28.5912C129.104 28.5912 128.624 28.2951 128.624 27.7169C128.624 27.0824 129.203 26.885 129.851 26.8004C130.204 26.7581 131.149 26.6593 131.29 26.4901V27.2516C131.29 27.9285 130.754 28.5912 129.767 28.5912Z" fill="#08A66E"/>
<path d="M134.472 25.9543C134.472 25.0095 135.057 24.4736 135.854 24.4736C136.626 24.4736 137.095 24.9778 137.095 25.8274V29.2117H137.927V25.771C137.927 24.389 137.19 23.7263 136.094 23.7263C135.276 23.7263 134.768 24.0929 134.514 24.6428H134.444V23.7968H133.64V29.2117H134.472V25.9543Z" fill="#08A66E"/>
<path d="M141.633 31.3551C142.93 31.3551 143.974 30.7629 143.974 29.3668V23.7968H143.17V24.6569H143.085C142.902 24.3749 142.564 23.7263 141.506 23.7263C140.138 23.7263 139.193 24.8121 139.193 26.476C139.193 28.1682 140.18 29.1271 141.492 29.1271C142.549 29.1271 142.888 28.5066 143.071 28.2105H143.142V29.3104C143.142 30.2129 142.507 30.6218 141.633 30.6218C140.649 30.6218 140.304 30.1036 140.082 29.804L139.419 30.2693C139.757 30.8369 140.424 31.3551 141.633 31.3551ZM141.605 28.3797C140.561 28.3797 140.025 27.59 140.025 26.4619C140.025 25.362 140.547 24.4736 141.605 24.4736C142.62 24.4736 143.156 25.2915 143.156 26.4619C143.156 27.6605 142.606 28.3797 141.605 28.3797Z" fill="#08A66E"/>
<path d="M147.767 29.3245C148.867 29.3245 149.671 28.7746 149.925 27.9567L149.121 27.7311C148.909 28.2951 148.419 28.5771 147.767 28.5771C146.79 28.5771 146.117 27.9461 146.078 26.7863H150.009V26.4337C150.009 24.4172 148.811 23.7263 147.682 23.7263C146.216 23.7263 145.243 24.8826 145.243 26.5465C145.243 28.2105 146.202 29.3245 147.767 29.3245ZM146.078 26.0671C146.135 25.2245 146.731 24.4736 147.682 24.4736C148.585 24.4736 149.163 25.1505 149.163 26.0671H146.078Z" fill="#08A66E"/>
</g>
<defs>
<linearGradient id="paint0_linear_6_2" x1="37.6696" y1="31.9999" x2="37.6696" y2="1.65599" gradientUnits="userSpaceOnUse">
<stop stop-color="#9D9FA2"/>
<stop offset="1" stop-color="#D1D3D4"/>
</linearGradient>
<linearGradient id="paint1_linear_6_2" x1="26.0033" y1="32.0001" x2="26.0033" y2="1.60864" gradientUnits="userSpaceOnUse">
<stop stop-color="#9D9FA2"/>
<stop offset="1" stop-color="#F1F2F2"/>
</linearGradient>
<linearGradient id="paint2_linear_6_2" x1="25.4621" y1="8.7122" x2="32.7149" y2="18.89" gradientUnits="userSpaceOnUse">
<stop stop-color="#9D9FA2" stop-opacity="0"/>
<stop offset="0.07" stop-color="#919396" stop-opacity="0.21"/>
<stop offset="0.2" stop-color="#7D7F81" stop-opacity="0.55"/>
<stop offset="0.32" stop-color="#6F7072" stop-opacity="0.8"/>
<stop offset="0.44" stop-color="#666769" stop-opacity="0.95"/>
<stop offset="0.53" stop-color="#636466"/>
<stop offset="0.64" stop-color="#656668" stop-opacity="0.97"/>
<stop offset="0.73" stop-color="#6C6D6F" stop-opacity="0.87"/>
<stop offset="0.81" stop-color="#76787A" stop-opacity="0.71"/>
<stop offset="0.89" stop-color="#86878A" stop-opacity="0.49"/>
<stop offset="0.96" stop-color="#9A9B9E" stop-opacity="0.2"/>
<stop offset="1" stop-color="#A7A9AC" stop-opacity="0"/>
</linearGradient>
<linearGradient id="paint3_linear_6_2" x1="0" y1="16.0024" x2="67.2004" y2="16.0024" gradientUnits="userSpaceOnUse">
<stop stop-color="#08AC71"/>
<stop offset="1" stop-color="#067B58"/>
</linearGradient>
<linearGradient id="paint4_linear_6_2" x1="-5.70802" y1="0.015602" x2="74.9322" y2="0.015602" gradientUnits="userSpaceOnUse">
<stop stop-color="#067B58"/>
<stop offset="1" stop-color="#08AC71"/>
</linearGradient>
<linearGradient id="paint5_linear_6_2" x1="0" y1="7531.65" x2="66037.1" y2="7531.65" gradientUnits="userSpaceOnUse">
<stop stop-color="#067B58"/>
<stop offset="1" stop-color="#08AC71"/>
</linearGradient>
<linearGradient id="paint6_linear_6_2" x1="-5610.5" y1="7531.97" x2="73634.7" y2="7531.97" gradientUnits="userSpaceOnUse">
<stop stop-color="#067B58"/>
<stop offset="1" stop-color="#08AC71"/>
</linearGradient>
<clipPath id="clip0_6_2">
<rect width="174" height="32" fill="white"/>
</clipPath>
</defs>
</svg>
